# xmcd
#
# Track frame offsets:
#	150
#	19355
#	34781
#	53074
#	73278
#	93072
#	110662
#	130940
#	149726
#	169892
#	187342
#	203748
#
# Disc length: 2903 seconds
# Revision: 1
# Processed by: cddbd v1.5.2PL0 Copyright (c) Steve Scherf et al.
# Submitted via: dBpowerAMP V12.0
#
DISCID=ba0b550c
DTITLE=Thorbjorn Risager and The Black Tornado - Too Many Roads
DYEAR=2014
DGENRE=Blues
TTITLE0=If You Wanna Leave
TTITLE1=Too Many Roads
TTITLE2=China Gate
TTITLE3=Paradise
TTITLE4=Drowning
TTITLE5=Backseat Driver
TTITLE6=Through The Tears
TTITLE7=High Rolling
TTITLE8=Long Forgotten Track
TTITLE9=Red Hot and Blue
TTITLE10=Rich Man
TTITLE11=Play On
EXTD=
EXTT0=
EXTT1=
EXTT2=
EXTT3=
EXTT4=
EXTT5=
EXTT6=
EXTT7=
EXTT8=
EXTT9=
EXTT10=
EXTT11=
PLAYORDER=
